<svg xmlns="http://www.w3.org/2000/svg" width="152.043" height="39.824" viewBox="0 0 152.043 39.824">
  <g id="Groupe_3036" data-name="Groupe 3036" transform="translate(0 0)">
    <g id="Groupe_3037" data-name="Groupe 3037" transform="translate(0 0)">
      <path id="Tracé_10249" data-name="Tracé 10249" d="M2.154,32.466h9.537a21.75,21.75,0,0,1-2.97-16.416C9.872,10.29,12.932,4.9,17.821,0H8.236A38.006,38.006,0,0,0,.6,15.962a27.684,27.684,0,0,0,1.558,16.5" transform="translate(0 -0.001)" fill="#043cfb"/>
      <path id="Tracé_10250" data-name="Tracé 10250" d="M16.784,32.47l13.624,0c-5.7-2.114-9.988-8.248-8.359-16.709,1.229-6.386,7-13.145,15.04-15.759L23.214,0c-5.179,4.941-8.4,10.406-9.564,16.249A20.992,20.992,0,0,0,16.784,32.47" transform="translate(-3.92 0)" fill="red"/>
      <path id="Tracé_10251" data-name="Tracé 10251" d="M43.12,32.37a18.763,18.763,0,0,1-2.5.17c-9.318,0-15.418-7.258-13.629-16.212S37.791.117,47.107.117a16.686,16.686,0,0,1,2.447.175L48,7.911a8.308,8.308,0,0,0-2.38-.335,11.454,11.454,0,0,0-10.859,8.752c-.966,4.834,2.327,8.754,7.357,8.754a9.423,9.423,0,0,0,2.537-.355Zm0,0a18.763,18.763,0,0,1-2.5.17c-9.318,0-15.418-7.258-13.629-16.212S37.791.117,47.107.117a16.686,16.686,0,0,1,2.447.175L48,7.911a8.308,8.308,0,0,0-2.38-.335,11.454,11.454,0,0,0-10.859,8.752c-.966,4.834,2.327,8.754,7.357,8.754a9.423,9.423,0,0,0,2.537-.355ZM45.81,19.231c1.5-7.5,9.048-13.585,16.854-13.585s12.921,6.083,11.42,13.585S65.039,32.817,57.231,32.817,44.312,26.734,45.81,19.231m12.783,6.774A8.865,8.865,0,0,0,67,19.231,5.5,5.5,0,0,0,61.3,12.457a8.861,8.861,0,0,0-8.4,6.774,5.5,5.5,0,0,0,5.693,6.774M93.334.516,91.988,7.243a5.343,5.343,0,0,0-2.052-.377c-2.053,0-4.891,1.777-5.343,4.037l-.387,1.937h6.663l-1.325,6.619H82.937L80.364,32.323H73.195L77.544,10.58C78.8,4.3,85.833.031,91.3.031a4.146,4.146,0,0,1,2.03.485m8.709,6.029.164.86c1.151-.429,4.525-1.345,6.951-.591l-1.443,7.212a2,2,0,0,0-1.606-.647,5.921,5.921,0,0,0-5.879,4.47c-.4,1.99-2.952,14.476-2.952,14.476H90.11L95.267,6.545Zm16.845,19.011a8.017,8.017,0,0,0,7.6-6.127,4.972,4.972,0,0,0-5.15-6.127,8.015,8.015,0,0,0-7.6,6.127,4.971,4.971,0,0,0,5.149,6.127m-1.443,6.615c-7.3,0-12.087-5.692-10.682-12.711S115.227,6.75,122.53,6.75a11.419,11.419,0,0,1,6.093,1.636l.388-1.841h6.943L130.8,32.323h-6.944l.377-1.754a15.4,15.4,0,0,1-6.788,1.6m39.416.153h-7.117L152.629,17.9a3.491,3.491,0,0,0-3.616-4.3,5.541,5.541,0,0,0-5.322,4.219c-.4,1.991-2.961,14.5-2.961,14.5h-7.166L138.72,6.545h6.5l.247,1.119a13.453,13.453,0,0,1,4.921-.914c6.406,0,10.6,4.992,9.372,11.15Z" transform="translate(-7.928 -0.009)"/>
      <path id="Tracé_10252" data-name="Tracé 10252" d="M128.337,49.759h1.814l-.63,3.573h2.331l-.2,1.161H127.5Z" transform="translate(-37.883 -14.784)" fill="#878787"/>
      <path id="Tracé_10253" data-name="Tracé 10253" d="M139.455,53.953h-.018a2.184,2.184,0,0,1-1.931.976c-.907,0-1.491-.344-1.334-1.231l.5-2.859h1.814l-.406,2.3c-.062.351.023.587.531.587a.9.9,0,0,0,.917-.829l.363-2.061h1.814l-.7,3.976H139.3Z" transform="translate(-40.452 -15.105)" fill="#878787"/>
      <path id="Tracé_10254" data-name="Tracé 10254" d="M146.618,49.469h1.76l-.292,1.659h.018a1.957,1.957,0,0,1,1.757-.81c1.714,0,1.642,1.231,1.513,1.965a2.423,2.423,0,0,1-2.509,2.239c-.771,0-1.21-.294-1.34-.74h-.018l-.11.626h-1.65Zm2.251,2.048a1.06,1.06,0,0,0-1.121.957.712.712,0,0,0,.771.926,1.069,1.069,0,0,0,1.063-.938c.077-.44.058-.944-.713-.944" transform="translate(-43.304 -14.698)" fill="#878787"/>
      <path id="Tracé_10255" data-name="Tracé 10255" d="M156.358,50.791h1.705l-.181,1.028h.018a1.676,1.676,0,0,1,1.6-1.142,1.921,1.921,0,0,1,.73.128l-.263,1.492a1.094,1.094,0,0,0-.871-.306,1.25,1.25,0,0,0-1.315,1.027l-.308,1.748h-1.814Z" transform="translate(-46.248 -15.057)" fill="#878787"/>
      <path id="Tracé_10256" data-name="Tracé 10256" d="M164.268,50.375a3.467,3.467,0,0,0,.887.115,3.953,3.953,0,0,0,.927-.115l-.7,3.975h-1.814Zm2.089-.631c-.067.382-.536.465-1.153.465s-1.056-.083-.988-.465c.063-.358.5-.466,1.152-.466s1.052.108.988.466" transform="translate(-48.598 -14.641)" fill="#878787"/>
      <path id="Tracé_10257" data-name="Tracé 10257" d="M173.7,52.367a1.8,1.8,0,0,0-1.281-.453c-.853,0-1.328.325-1.438.951-.081.459.179.893,1.059.893a2.248,2.248,0,0,0,1.515-.568l-.2,1.129a3.1,3.1,0,0,1-1.922.562c-1.823,0-2.393-.989-2.2-2.105.221-1.257,1.223-2.1,3.091-2.1a2.421,2.421,0,0,1,1.588.46Z" transform="translate(-50.272 -15.057)" fill="#878787"/>
      <path id="Tracé_10258" data-name="Tracé 10258" d="M181.939,54.765H180.4l.123-.7H180.5a2,2,0,0,1-1.74.817c-.826,0-1.513-.37-1.4-1.04.281-1.595,3.281-1.116,3.386-1.716.046-.262-.363-.363-.689-.363a4.458,4.458,0,0,0-2.188.631l.2-1.111a5.52,5.52,0,0,1,2.447-.606c.872,0,2.1.23,1.925,1.225Zm-2.4-.7c.735,0,1.008-.727,1.114-1.123a7.6,7.6,0,0,1-.931.294c-.364.108-.64.236-.676.44-.041.23.185.389.493.389" transform="translate(-52.695 -15.057)" fill="#878787"/>
      <path id="Tracé_10259" data-name="Tracé 10259" d="M187.352,50.791h1.705l-.153.862h.018a2.186,2.186,0,0,1,1.932-.976c.907,0,1.49.345,1.334,1.231l-.5,2.858h-1.813l.406-2.3c.062-.351-.024-.586-.532-.586a.9.9,0,0,0-.917.829l-.363,2.06h-1.814Z" transform="translate(-55.457 -15.057)" fill="#878787"/>
      <path id="Tracé_10260" data-name="Tracé 10260" d="M196.69,50.783a2.927,2.927,0,0,0,1.964-1.314h.971l-.169.963h1.614l-.2,1.124h-1.633l-.265,1.506c-.048.274.216.415.516.415a1.13,1.13,0,0,0,.922-.4l-.172.976a2.518,2.518,0,0,1-1.57.466c-1.061,0-1.7-.4-1.562-1.167l.317-1.8h-.871Z" transform="translate(-58.399 -14.698)" fill="#878787"/>
      <path id="Tracé_10261" data-name="Tracé 10261" d="M208.349,52.258a2.271,2.271,0,0,0-1.481-.5c-.264,0-.692.063-.735.306-.091.517,2.363.077,2.116,1.474-.15.848-1.1,1.34-2.295,1.34a3.994,3.994,0,0,1-1.764-.389l.193-1.091a2.183,2.183,0,0,0,1.454.548c.272,0,.7-.038.749-.338.108-.612-2.378.006-2.085-1.652.151-.855,1.242-1.282,2.367-1.282a2.965,2.965,0,0,1,1.686.415Z" transform="translate(-60.669 -15.057)" fill="#878787"/>
    </g>
  </g>
</svg>
