<svg id="Layer_1" data-name="Layer 1" xmlns="http://www.w3.org/2000/svg" width="228.39" height="101.93" viewBox="0 0 228.39 101.93"><defs><style>.cls-1{fill:#4f5586;}.cls-2{fill:#9d9d9c;}</style></defs><path class="cls-1" d="M23,36.26S29.83,16.81,38.4,16.81c5.64,0,4.72,5.67,4.23,12.9-.71,10.48-2.79,23.69-2.79,24.49,0,1.48-.59,3.28,1.08,3.63,2.59.55,7.52-8.47,7.52-8.47S42,68.52,32.75,68.52c-2.82-.1-4.89-4.09-4.13-9.18.22-1.46,2.09-15.6,2.92-25,.25-2.82.4-4.84-1.61-5.14-2.62-.31-7,7-7,7"/><path class="cls-1" d="M36,0a7.49,7.49,0,1,0,7.48,7.48A7.48,7.48,0,0,0,36,0m2.32,7a2.21,2.21,0,1,1,2.2-2.21A2.2,2.2,0,0,1,38.35,7"/><path class="cls-1" d="M4.43,39.84c0-13.85,9-25,21.91-28.63L24.27,4.8C10,9.44,0,21.67,0,37.54a34.11,34.11,0,0,0,33.26,34.6C17.33,69.32,4.43,57.83,4.43,39.84"/><path class="cls-1" d="M68.31,44.28C64.74,57.67,52.2,65.69,41.12,66.9l1.61,6.86c12.41-1.53,24.74-11.08,28.83-26.41A35.13,35.13,0,0,0,46.36,4.21C63,9.91,73,26.9,68.31,44.28"/><polygon class="cls-1" points="86.18 10.31 93.03 10.31 90.41 35.29 83.55 35.29 86.18 10.31"/><path class="cls-1" d="M96.32,16H103l-.28,2.71a8,8,0,0,1,6-3.14c4.05,0,6.19,2.72,5.73,7.11l-1.33,12.63h-6.68l1.1-10.46c.22-2.1-.75-3.25-2.33-3.25s-2.94,1.15-3.16,3.25L101,35.29H94.29Z"/><polygon class="cls-1" points="115.81 15.98 122.84 15.98 125.31 27.26 130.15 15.98 137.08 15.98 127.44 35.43 121.36 35.43 115.81 15.98"/><path class="cls-1" d="M135.88,25.72v-.07a10.94,10.94,0,0,1,10.66-10.1c6.58,0,9.09,4.89,8.49,10.57-.05.42-.1.92-.18,1.39H142.12a3.47,3.47,0,0,0,3.78,3.17,6.33,6.33,0,0,0,4.42-2l3.37,3.11A11.12,11.12,0,0,1,145,35.75c-6,0-9.77-4-9.14-10M149,24.05c0-2.14-1.11-3.5-2.94-3.5s-3.1,1.39-3.67,3.5Z"/><path class="cls-1" d="M158.62,16h6.67l-.41,3.89c1.37-2.64,3.31-4.35,6.46-4.21l-.75,7.14H170c-3.48,0-5.67,2-6.14,6.49l-.63,6h-6.68Z"/><path class="cls-1" d="M173.17,29.29l.83-7.85h-2.25l.57-5.46h2.25l.51-4.89h6.68L181.25,16h4.43l-.58,5.46h-4.42L180,28c-.14,1.36.39,1.93,1.62,1.93a6.26,6.26,0,0,0,2.6-.64l-.56,5.31a10,10,0,0,1-4.75,1.11c-4,0-6.21-1.78-5.73-6.39"/><path class="cls-1" d="M186.25,25.72v-.07a10.92,10.92,0,0,1,10.66-10.1c6.57,0,9.08,4.89,8.48,10.57,0,.42-.09.92-.18,1.39H192.5a3.46,3.46,0,0,0,3.78,3.17,6.33,6.33,0,0,0,4.42-2l3.37,3.11a11.12,11.12,0,0,1-8.68,3.92c-6,0-9.77-4-9.14-10m13.11-1.67c0-2.14-1.1-3.5-2.93-3.5s-3.1,1.39-3.68,3.5Z"/><polygon class="cls-1" points="209.7 9.24 216.38 9.24 214.99 22.44 220.84 15.98 228.39 15.98 220.97 23.73 226.54 35.29 219.19 35.29 216.05 28.72 214.12 30.76 213.64 35.29 206.96 35.29 209.7 9.24"/><path class="cls-1" d="M82.76,42.75h7.33c6.63,0,10.72,4.62,10.09,10.64v.06a12.05,12.05,0,0,1-12.33,10.7H80.51Zm5.31,19.17a9.32,9.32,0,0,0,9.62-8.41v-.06c.5-4.74-2.51-8.47-7.85-8.47H84.91L83.13,61.92Z"/><path class="cls-1" d="M104.92,48.34h2.32l-.44,4.13c1.43-2.63,3.89-4.52,6.83-4.4l-.27,2.54h-.18c-3.41,0-6.44,2.47-6.94,7.24l-.66,6.3h-2.32Z"/><path class="cls-1" d="M116.49,48.34h2.32l-1.66,15.81h-2.32Zm.49-6.05h2.65l-.27,2.6h-2.65Z"/><polygon class="cls-1" points="121.75 48.34 124.31 48.34 128.18 61.46 134.83 48.34 137.33 48.34 128.88 64.28 126.83 64.28 121.75 48.34"/><path class="cls-1" d="M144.9,62.47A7.11,7.11,0,0,0,150,60.24l1.31,1.31a8.92,8.92,0,0,1-6.73,3c-4.28,0-7.42-3.33-6.91-8.26.49-4.58,4-8.25,8.34-8.25,4.62,0,6.88,3.73,6.39,8.38a8.09,8.09,0,0,1-.12.82H140c0,3.34,2.18,5.26,4.93,5.26m5.3-7.15c0-2.88-1.34-5.32-4.41-5.32-2.69,0-5,2.26-5.63,5.32Z"/><path class="cls-1" d="M154,62.14l1.35-1.69a8.12,8.12,0,0,0,5.18,2c1.87,0,3.33-1,3.49-2.51V59.9c.17-1.59-1.6-2.2-3.59-2.78-2.37-.7-5-1.56-4.68-4.46V52.6c.29-2.73,2.71-4.53,5.78-4.53a9.63,9.63,0,0,1,5.42,1.74l-1.24,1.78a7.91,7.91,0,0,0-4.45-1.53c-1.83,0-3.11,1-3.25,2.29v.06c-.15,1.5,1.71,2.08,3.72,2.72,2.34.74,4.83,1.69,4.53,4.53v.06c-.31,3-2.93,4.74-6,4.74a9.63,9.63,0,0,1-6.2-2.32"/><polygon class="cls-1" points="171.1 62.75 172.42 62.75 172.3 64.15 170.97 64.15 171.1 62.75"/><path class="cls-1" d="M174.67,59.79l0-.17c.27-3.1,2.1-4.53,3.81-4.53a2.79,2.79,0,0,1,1.32.31l-.07.78a2.38,2.38,0,0,0-1.33-.41c-1.16,0-2.6,1.18-2.83,3.82l0,.23c-.23,2.69,1,3.77,2.26,3.77a2.53,2.53,0,0,0,1.32-.41l-.07.75a2.86,2.86,0,0,1-1.37.34c-1.76,0-3.3-1.37-3-4.48"/><path class="cls-1" d="M180.85,59.76V59.6c.24-2.81,1.91-4.52,3.6-4.52s3,1.71,2.76,4.52v.16c-.25,2.8-1.89,4.52-3.58,4.52s-3-1.72-2.78-4.52m5.46,0V59.6c.21-2.35-.68-3.86-1.94-3.86s-2.42,1.51-2.62,3.86l0,.16c-.2,2.35.69,3.86,1.95,3.86s2.42-1.51,2.62-3.86"/><path class="cls-1" d="M189.92,55.21h.9l-.11,1.31a2.68,2.68,0,0,1,2.36-1.45,2,2,0,0,1,2.07,1.52,3,3,0,0,1,2.61-1.52c1.54,0,2.48,1,2.32,2.8l-.55,6.28h-.9l.55-6.22c.13-1.48-.47-2.24-1.58-2.24a2.4,2.4,0,0,0-2.28,2.38l-.53,6.08h-.9l.55-6.22c.13-1.48-.47-2.24-1.58-2.24a2.4,2.4,0,0,0-2.28,2.38L190,64.15h-.9Z"/><path class="cls-2" d="M220.91,99a9.4,9.4,0,0,1-2-.23v-.68a5.55,5.55,0,0,0,1.66.27c1.59,0,1.8-.79,1.8-1.46S222,95.63,221,94.94c-1.48-1-2.11-1.63-2.11-2.66,0-1.28.91-1.94,2.87-1.94a5.21,5.21,0,0,1,1.51.23v.68a4.54,4.54,0,0,0-1.56-.31c-1.13,0-1.55.51-1.55,1.16s.79,1.3,1.93,2.13a3,3,0,0,1,1.54,2.38c0,1.15-.65,2.37-2.68,2.37"/><rect class="cls-2" x="209.94" y="90.5" width="1.28" height="8.33"/><path class="cls-2" d="M208.57,90.5h-1.28v.84a1.87,1.87,0,0,0-1.72-1C203,90.35,203,93,203,94.57c0,2.15.39,4.4,2.56,4.4a2.13,2.13,0,0,0,1.72-.9v1.28c0,.8-.2,1.82-1.83,1.82a4.11,4.11,0,0,1-1.92-.48v.8a5.91,5.91,0,0,0,2.26.44c2.18,0,2.77-1.15,2.77-2.51Zm-2.73,7.66c-1.14,0-1.58-1.6-1.58-3.59s.13-3.41,1.49-3.41a1.93,1.93,0,0,1,1.54,1.19v4.87a1.55,1.55,0,0,1-1.45.94"/><rect class="cls-2" x="193.51" y="86.82" width="1.28" height="12"/><path class="cls-2" d="M170.16,99c-2.47,0-3.07-2.19-3.07-4.43s.61-4.2,3.07-4.2a3.73,3.73,0,0,1,1.63.32v.67a3.54,3.54,0,0,0-1.32-.29c-1.88,0-2,1.5-2,3.45,0,2.15.39,3.77,2,3.77a2.89,2.89,0,0,0,1.32-.29v.68a3.9,3.9,0,0,1-1.63.32"/><polygon class="cls-2" points="161.54 88.26 154.83 88.26 154.83 89.1 157.47 89.1 157.47 98.76 158.9 98.76 158.9 89.1 161.54 89.1 161.54 88.26"/><path class="cls-2" d="M185.12,98.83V92.51c0-1.32-.52-2.16-2.08-2.16a2.87,2.87,0,0,0-2.13.94V90.5h-1.28v8.33h1.28V92.1a2.08,2.08,0,0,1,1.76-1c1,0,1.22.64,1.22,1.83v5.86Z"/><path class="cls-2" d="M178.26,98.83V92.51c0-1.32-.52-2.16-2.09-2.16a2.9,2.9,0,0,0-2.09.91V86.82h-1.28v12h1.28V92.05a2.08,2.08,0,0,1,1.72-.91c1,0,1.22.64,1.22,1.83v5.86Z"/><path class="cls-2" d="M166.19,94.72H162c0,1.74.56,3.58,2.42,3.58A4.63,4.63,0,0,0,166,98v.68a5.86,5.86,0,0,1-1.86.3c-2.6,0-3.46-1.88-3.46-4.48,0-2.38.6-4.16,3-4.16,2.11,0,2.51,1.59,2.55,3,0,.45,0,.87,0,1.36m-1.36-1.64c0-.78-.19-2.14-1.32-2.14S162,92.43,162,94h2.86c0-.31,0-.64,0-1"/><path class="cls-2" d="M218,94.72h-4.2c0,1.74.56,3.58,2.42,3.58a4.63,4.63,0,0,0,1.55-.3v.68a5.87,5.87,0,0,1-1.87.3c-2.59,0-3.45-1.88-3.45-4.48,0-2.38.6-4.16,3-4.16,2.11,0,2.51,1.59,2.55,3,0,.45,0,.87,0,1.36m-1.36-1.64c-.05-.78-.19-2.14-1.32-2.14s-1.51,1.49-1.52,3.1h2.86c0-.31,0-.64,0-1"/><path class="cls-2" d="M189.34,99c-2.84,0-3-2.46-3-4.3s.15-4.3,3-4.3,3,2.45,3,4.3-.16,4.3-3,4.3m0-8c-1.53,0-1.69,1.86-1.69,3.69s.16,3.69,1.69,3.69,1.7-1.88,1.7-3.69-.17-3.69-1.7-3.69"/><path class="cls-2" d="M199,99c-2.84,0-3-2.46-3-4.3s.15-4.3,3-4.3,3,2.45,3,4.3-.16,4.3-3,4.3m0-8c-1.52,0-1.69,1.86-1.69,3.69s.17,3.69,1.69,3.69,1.7-1.88,1.7-3.69S200.55,91,199,91"/><polygon class="cls-2" points="146.53 90.5 144.56 96.9 142.6 90.5 141.31 90.5 143.87 98.83 145.07 98.83 145.07 98.83 147.62 90.5 146.53 90.5"/><rect class="cls-2" x="139.3" y="90.5" width="1.28" height="8.33"/><path class="cls-2" d="M138.28,90.36a2.28,2.28,0,0,0-2,1V90.5H135v8.33h1.28V92.47a1.77,1.77,0,0,1,1.77-1.1,3.06,3.06,0,0,1,.56.08V90.36h-.29"/><path class="cls-2" d="M129.07,88.27h-2V98.82h2.07a4.66,4.66,0,0,0,3.53-1.24c.84-1,1.17-2.27,1.17-4.23,0-2.62-.52-5.08-4.73-5.08m-.16,9.84h-.45V89h.44c2.56,0,3.48,1.32,3.48,4.35s-.81,4.76-3.47,4.76"/><path class="cls-2" d="M153.41,94.72h-4.2c0,1.74.56,3.58,2.42,3.58a4.63,4.63,0,0,0,1.55-.3v.68a5.86,5.86,0,0,1-1.86.3c-2.61,0-3.46-1.88-3.46-4.48,0-2.38.6-4.16,3-4.16,2.11,0,2.51,1.59,2.55,3,0,.45,0,.87,0,1.36m-1.36-1.64c-.05-.78-.19-2.14-1.32-2.14s-1.51,1.49-1.52,3.1h2.86c0-.31,0-.64,0-1"/><path class="cls-2" d="M140.82,88.43a.88.88,0,1,1-.88-.86.87.87,0,0,1,.88.86"/><path class="cls-2" d="M96.76,98.22c-.64,0-.74-.3-.74-1.24V91.34h1.82v-.79H96v-2l-2.07.49v1.48h-1v.79h1V97c0,1.86,1.33,2,2.39,2a4.68,4.68,0,0,0,1.41-.24l.26-.11v-.7a3.47,3.47,0,0,1-1.24.31"/><path class="cls-2" d="M75.35,90.46v6.93a1.81,1.81,0,0,1-1.18.54c-1,0-1.06-.54-1.06-1.61V90.46H71v6.47c0,1.64,1.07,2,2.28,2a3.32,3.32,0,0,0,2.1-.75v.6h2.09V90.46Z"/><path class="cls-2" d="M88.8,98.82V92.28c0-1.43-.82-1.93-2-1.93a3.2,3.2,0,0,0-2.2.93,1.82,1.82,0,0,0-1.84-.93,3.14,3.14,0,0,0-2,.75v-.6h-2.1v8.32h2.1V91.9a1.4,1.4,0,0,1,.89-.47c.68,0,1,.47,1,1.54v5.85h2.14V92.28c0-.12,0-.23,0-.34a1.44,1.44,0,0,1,.93-.51c.68,0,1,.47,1,1.54v5.85Z"/><path class="cls-2" d="M115.87,98.82V92.28c0-1.43-.81-1.93-2-1.93a3.24,3.24,0,0,0-2.21.93,1.8,1.8,0,0,0-1.83-.93,3.12,3.12,0,0,0-2,.75v-.6h-2.1v8.32h2.1V91.9a1.35,1.35,0,0,1,.89-.47c.67,0,1,.47,1,1.54v5.85h2.14V92.28c0-.12,0-.23,0-.34a1.46,1.46,0,0,1,.94-.51c.68,0,1,.47,1,1.54v5.85Z"/><path class="cls-2" d="M66.79,99a8.81,8.81,0,0,1-2.68-.4v-1a5.29,5.29,0,0,0,2.06.39,1.57,1.57,0,0,0,1.68-1.65c0-1.15-.7-1.71-2-2.78-1-.87-1.75-1.6-1.75-2.82,0-1.73,1.33-2.57,3.81-2.57a6,6,0,0,1,2,.29v1.09A4.3,4.3,0,0,0,68,89.05c-1.31,0-1.48.68-1.48,1.15,0,.64.28,1,1.45,2,.95.81,2.18,1.75,2.18,3.41,0,1.84-.85,3.37-3.4,3.37"/><path class="cls-2" d="M101.37,99c-3.28,0-3.46-2.53-3.46-4.42s.18-4.41,3.46-4.41,3.48,2.52,3.48,4.41S104.66,99,101.37,99m0-8.1c-1.18,0-1.31,1.81-1.31,3.68s.13,3.68,1.31,3.68,1.3-1.81,1.3-3.68-.13-3.68-1.3-3.68"/><path class="cls-2" d="M120.17,99c-3.28,0-3.46-2.53-3.46-4.42s.18-4.41,3.46-4.41,3.48,2.52,3.48,4.41S123.46,99,120.17,99m0-8.1c-1.18,0-1.3,1.81-1.3,3.68s.12,3.68,1.3,3.68,1.3-1.81,1.3-3.68-.12-3.68-1.3-3.68"/><path class="cls-2" d="M89.93,90.47H92v8.32h-2.1ZM91,86.89a1.3,1.3,0,1,0,1.31,1.29A1.31,1.31,0,0,0,91,86.89"/><path class="cls-2" d="M210.9,84.19a2.85,2.85,0,0,1,.64,1.81,2.75,2.75,0,0,1-1.75,2.61,2.3,2.3,0,1,0,1.11-4.42"/><path class="cls-2" d="M210.64,86.54a1.32,1.32,0,1,0-2.34,0,1.32,1.32,0,1,0,2.34,0"/><path class="cls-2" d="M58.35,98.8V92.86h1.53V92H58.35v-.38c0-1,.24-1.91,1.22-1.91a1.8,1.8,0,0,1,.73.14l.17-.93a2.53,2.53,0,0,0-1-.19,2.16,2.16,0,0,0-1.57.63,3.19,3.19,0,0,0-.74,2.29V92h-.93v.9h.93V98.8ZM52.67,98c-1.14,0-1.8-1.26-1.8-2.64s.49-2.68,1.81-2.68,1.8,1.52,1.8,2.65c0,1.41-.68,2.67-1.8,2.67Zm0,.91c1.46,0,3-1,3-3.61,0-2.19-1.23-3.52-3-3.52s-3.07,1.24-3.07,3.61S51,99,52.62,99Zm-9.32-.15h1.19V95.11a3.57,3.57,0,0,1,0-.59A1.66,1.66,0,0,1,46.12,93a1.23,1.23,0,0,1,.35,0V91.85a1.42,1.42,0,0,0-.31,0,1.92,1.92,0,0,0-1.75,1.41h0l0-1.27H43.26c0,.59.06,1.29.06,2Zm-5.63-4.1c.08-.89.56-2,1.67-2s1.53,1,1.51,2Zm4.28.87A3,3,0,0,0,42,95c0-1.34-.57-3.15-2.55-3.15-1.81,0-2.95,1.55-2.95,3.66s1.14,3.45,3.11,3.45a5,5,0,0,0,2-.39l-.19-.87A3.75,3.75,0,0,1,39.8,98c-1.11,0-2.11-.62-2.13-2.43Zm-11-.85a2.41,2.41,0,0,1,.05-.5,1.79,1.79,0,0,1,1.63-1.44c1.2,0,1.8,1.19,1.8,2.57,0,1.53-.64,2.64-1.81,2.64A1.69,1.69,0,0,1,31,96.6a2,2,0,0,1,0-.44Zm-1.19,2.36c0,.56,0,1.27-.06,1.72h1l.06-1h0a2.16,2.16,0,0,0,2,1.2c1.38,0,2.77-1.19,2.77-3.65,0-2.12-1.08-3.48-2.59-3.48A2.25,2.25,0,0,0,31,93h0V88.84H29.77ZM19,98.8h1.17V94.62a2,2,0,0,1,.09-.61,1.52,1.52,0,0,1,1.39-1.2c.89,0,1.27.79,1.27,1.78V98.8h1.17V94.52a2,2,0,0,1,.09-.62,1.44,1.44,0,0,1,1.33-1.09c.95,0,1.33.8,1.33,2v4H28V94.62c0-2.18-1.16-2.8-2.08-2.8a2.13,2.13,0,0,0-1.33.41,2.51,2.51,0,0,0-.73.86h0a1.85,1.85,0,0,0-1.78-1.27,2.17,2.17,0,0,0-2,1.17h0L20,92H19c0,.57.05,1.09.05,1.83Zm-5.63-4.1c.09-.89.57-2,1.67-2s1.53,1,1.52,2Zm4.29.87a3.12,3.12,0,0,0,0-.6c0-1.34-.57-3.15-2.55-3.15-1.81,0-2.95,1.55-2.95,3.66s1.14,3.45,3.11,3.45a5,5,0,0,0,2-.39l-.2-.87A3.75,3.75,0,0,1,15.5,98c-1.1,0-2.11-.62-2.12-2.43ZM9.88,98.8H11l-.58-9.53H9L7.48,93.81C7.1,95,6.8,96.05,6.56,97.05h0c-.24-1-.53-2-.9-3.24L4.16,89.27H2.7L2.07,98.8H3.18l.23-4c.08-1.42.14-2.93.17-4.11h0c.24,1.12.58,2.34,1,3.65L6,98.75h.85l1.54-4.57c.41-1.26.76-2.45,1.06-3.54h0c0,1.15.07,2.71.14,4Z"/></svg>