<?xml version="1.0" encoding="utf-8"?>
<!-- Generator: Adobe Illustrator 29.3.1, SVG Export Plug-In . SVG Version: 9.03 Build 55982)  -->
<svg version="1.1" id="Ebene_1" xmlns:serif="http://www.serif.com/" xmlns:xlink="http://www.w3.org/1999/xlink" xmlns="http://www.w3.org/2000/svg" x="0px" y="0px" viewBox="0 0 604.2 473.7" style="enable-background:new 0 0 604.2 473.7;" xml:space="preserve">
<style type="text/css">
	.st0{fill:#1D1D1B;}
	.st1{clip-path:url(#SVGID_00000143593175267320978800000011934280213012764584_);}
	.st2{fill:#0069B4;}
	.st3{fill:none;stroke:#0069B4;stroke-width:0.69;}
</style>
<g>
	<path class="st0" d="M277.1,84.2c0,0,5.9-10,8.9-20.9c4.1-15,4.4-27.3,4.4-27.3s-5.8-3.7-11.2-6.8c-4.9-2.8-9.5-4.9-9.5-4.9
		s-12.1,8.1-21.3,18.6c-10,11.4-17.1,25.1-17.1,25.1s-5.8-1.9-11.2-3.3c-4.8-1.2-9.4-1.9-9.4-1.9s0.4-16.6-2.8-31.3
		c-3.1-14-9.8-26.3-9.8-26.3s-6.4-0.2-12.9-0.1c-5.3,0.1-10.9,0.6-10.9,0.6s-6.9,14.3-9.8,28.6c-2.9,14.4-1.9,28.8-1.9,28.8
		s-4.9,0.9-9.7,2.2c-5.2,1.4-10.2,3.3-10.2,3.3s-5.9-11.6-14.3-20.9c-13.6-15-25.1-22.2-25.1-22.2s-5.8,2.9-11.1,5.9
		c-4.8,2.8-9.2,5.9-9.2,5.9S82,48.6,87.4,64.7c4.8,14.5,13.9,28.1,13.9,28.1s-4.5,3.8-8.4,7.8c-3.5,3.6-6.5,7.5-6.5,7.5
		s-12.1-8.4-25.9-12.7c-16-5-29.7-4.9-29.7-4.9s-3.1,4.6-6,9.6c-3,5.2-5.7,10.9-5.7,10.9s6.2,11.4,18.7,22.2
		c11.3,9.8,25.1,16.5,25.1,16.5s-1.9,5.2-3.2,10.5c-1.2,4.9-1.8,9.9-1.8,9.9s-15.6-0.6-30.1,2.3c-17,3.4-27.2,9.7-27.2,9.7
		S0,188.4,0,194.6c0,5.7,0.6,11.4,0.6,11.4s10.5,6.5,26.1,9.4c15.2,2.8,31.4,1.9,31.4,1.9s0.8,5.2,2.1,10.5
		c1.3,5.2,3.2,10.5,3.2,10.5s-13.8,7-25.3,17.7c-12.2,11.5-17.5,21.5-17.5,21.5s2.9,5.6,5.9,10.9c3,5.3,6.2,9.8,6.2,9.8
		s11.7,0.3,26.3-4.7c14.8-5,29-14,29-14s3.5,3.9,7.4,7.6c3.9,3.7,8.2,7.3,8.2,7.3s-7.9,12.3-12.6,25.9c-5.5,15.8-5.9,29.1-5.9,29.1
		l21.4,12c0,0,10-6.6,22.7-20.6c9.1-10.1,15.1-23.2,15.1-23.2s4.7,1.6,9.6,2.8c5.4,1.4,11.1,2.5,11.1,2.5s-0.7,15.8,2.3,30.1
		c2.9,14,9.6,26.6,9.6,26.6s5.9,0.6,12.2,0.5c6.4,0,13.1-0.7,13.1-0.7s4.6-5.5,8.4-27.2c2.6-14.6,1.9-30,1.9-30s5.2-0.8,10.2-2.2
		c4.9-1.4,9.5-3.4,9.5-3.4s7.2,12.8,16.6,23.8c12.1,14.1,22.5,19.9,22.5,19.9s5.4-2.5,10.4-5.4c5.5-3.2,10.7-6.9,10.7-6.9
		s0-12.4-5.9-29.2c-4.7-13.6-12.9-26-12.9-26s3.1-2.7,6.5-6c4-4,8.4-8.8,8.4-8.8s10.8,7.2,22.2,11.2c21.9,7.7,33.1,7.1,33.1,7.1
		s3.2-4.7,6-9.6c3.3-5.8,6.3-11.9,6.3-11.9s-7.3-12.1-23.7-25.1c-9.7-7.7-20.3-13-20.3-13s2.9-8,4.2-13.2c1.3-5.3,1.1-7.8,1.1-7.8
		l-51.4,17.9c0,0-20.5,47-77.6,48.2c-4.9,0.1-9.9-0.5-15.3-1.1c-9.6-1.1-21.2-6.4-29-10.4c-36.5-18.8-43.4-57.5-43.4-57.5
		s-13.6-45,23.4-83c5.6-5.8,13.1-10.7,19.1-14.3c33.8-20,68.8-8.2,68.8-8.2L277.1,84.2L277.1,84.2z"/>
	<polygon class="st0" points="171.2,134.9 201.9,124.2 242,176.3 242,110.3 273,99.5 273,218.9 242,229.6 202.1,178 202.1,243.5
		171.2,254.3 	"/>
	<path class="st0" d="M277,148.2c0-18.6,5-34,15.1-46.1s24.2-21.9,42.2-25c18.4-3.2,32.4,1.4,42.3,9.8c10,8.4,14.9,21.8,14.9,40.2
		c0,13.3-2.2,24.6-6.5,33.9c-4.4,9.3-10.6,17-18.9,23.2s-18.7,11.9-31,14c-12.5,2.2-22.5,0.5-30.7-2.2c-8.2-2.6-14.8-8-19.9-15.9
		C279.5,172.2,277,161.5,277,148.2 M306.6,143.7c-0.2,31.4,20.6,28.4,27.7,26.9c6-1.3,24.9-7.6,27.1-36c2.4-31-18.9-33.3-28.6-30.1
		C326.2,106.8,306.9,115.6,306.6,143.7"/>
	<g>
		<defs>
			<rect id="SVGID_1_" width="604.2" height="381.9"/>
		</defs>
		<clipPath id="SVGID_00000178887135997564715220000000265149043373870998_">
			<use xlink:href="#SVGID_1_"  style="overflow:visible;"/>
		</clipPath>
		<g style="clip-path:url(#SVGID_00000178887135997564715220000000265149043373870998_);">
			<path class="st0" d="M395.3,176.3V57l54.8-19.1c10.2-3.5,17.9-5.3,23.3-5.2c5.4,0.1,9.7,2.2,13,6.4c3.3,4.1,5.9,10.2,5.9,17.8
				c0,6.6-1.7,17-4.3,22.7c-7.3,15.6-18.2,21.8-18.2,21.8s-0.7-0.4,2.3,0.3c2.7,0.6,7.9,2.4,12,9.3l15.9,29l-37.2,12.9l-13.2-29
				c-2-3.7-5-12.2-14.2-9c-2.3,0.9-7.1,2.6-7.1,2.6v47.3L395.3,176.3L395.3,176.3z M428.2,95.6l13.9-4.8c1.5-0.5,10.8-4.4,14-10.2
				c1.4-2.5,2.1-5,2.1-7.6c0-3.9-1.1-6.4-3.3-7.7c-2.2-1.3-6.3-0.9-12.3,1.2l-14.4,5V95.6L428.2,95.6z"/>
			<path class="st0" d="M503.5,19.4l48.9-17c9.6-3.3,49.2-10.5,49,40.4c-0.2,61.5-16.1,66.9-43.2,76.5l-54.7,19.5V19.4L503.5,19.4z
				 M553.6,29c-9.6,3.3-17.1,5.9-17.1,5.9v63.4c0,0,13-4.5,20-7c16.8-6.1,17.3-28,16.1-46.6C572.3,40,571.3,22.8,553.6,29"/>
		</g>
	</g>
	<path class="st0" d="M569.9,130c-3,1.6-5.3,3.9-7,6.9c-1.7,3-2.5,6.2-2.5,9.4s0.8,6.4,2.5,9.3c1.7,3,4,5.3,7,7
		c3,1.7,6.1,2.5,9.4,2.5s6.4-0.8,9.4-2.5c3-1.6,5.3-4,7-7c1.7-3,2.5-6.1,2.5-9.3s-0.8-6.4-2.5-9.4c-1.7-3-4-5.3-7-6.9
		c-3-1.6-6.1-2.4-9.2-2.4S572.9,128.3,569.9,130 M586.8,132.7c2.5,1.4,4.5,3.3,5.9,5.8c1.4,2.5,2.1,5.1,2.1,7.9s-0.7,5.3-2.1,7.8
		c-1.4,2.5-3.3,4.4-5.8,5.8c-2.5,1.4-5.1,2.1-7.8,2.1s-5.3-0.7-7.8-2.1c-2.5-1.4-4.4-3.3-5.8-5.8c-1.4-2.5-2.1-5.1-2.1-7.8
		s0.7-5.3,2.1-7.9s3.4-4.4,5.9-5.8c2.5-1.4,5.1-2,7.7-2S584.3,131.3,586.8,132.7 M574.1,156.7v-8.6h1.9c1.1,0,2,0.2,2.6,0.7
		c0.9,0.6,2,2.2,3.4,4.7l1.8,3.2h4l-2.5-4c-1.2-1.9-2.2-3.2-3-4c-0.4-0.4-1-0.8-1.7-1.1c1.7-0.1,3.1-0.8,4.2-1.8
		c1-1.1,1.6-2.4,1.6-3.9c0-1-0.3-2-1-3c-0.6-0.9-1.5-1.6-2.5-2c-1.1-0.4-2.8-0.6-5.2-0.6h-7v20.2H574.1L574.1,156.7z M574.1,139.2
		h3.7c1.6,0,2.7,0.1,3.3,0.4c0.6,0.2,1,0.6,1.4,1.1c0.3,0.5,0.5,1,0.5,1.6c0,0.9-0.3,1.7-1,2.2c-0.7,0.6-2,0.9-3.9,0.9h-4
		L574.1,139.2L574.1,139.2z"/>
	<path class="st2" d="M2.8,473h21.9c4.7,0,8.6-0.7,11.6-2c3-1.3,5.5-3.3,7.7-5.9s3.9-6.2,5.2-10.7c1.4-4.5,2.1-9.8,2.1-15.9
		c0-6.8-0.7-12.4-2-17c-1.3-4.5-3.1-8.2-5.4-11.1c-2.3-2.8-4.8-4.9-7.6-6.1c-2.7-1.2-6.8-1.8-12.2-1.8H2.8V473L2.8,473z M19.7,414.4
		c4.7,0,7.8,0.2,9.5,0.6c2.2,0.5,4,1.7,5.5,3.4s2.7,4.1,3.4,7.1c0.7,3,1.1,7.1,1.1,12.3s-0.3,9.1-1.1,12.2s-1.6,5.3-2.7,6.8
		s-2.5,2.5-4.1,3.2c-1.7,0.7-4.4,1.1-8.1,1.1h-8.8v-46.7L19.7,414.4L19.7,414.4z"/>
	<path class="st2" d="M70.9,473v-29.4l1.7,0c2.4,0,4.1,0.3,5.2,0.8c1.1,0.5,2.1,1.5,3.1,2.9c1,1.4,2.8,4.9,5.5,10.4l7.5,15.3h12.3
		l-6.2-13.8c-2.5-5.5-4.5-9.3-5.9-11.5c-1.4-2.1-3.3-4.1-5.5-5.9c4.3-0.9,7.6-3,10-6.3c2.3-3.4,3.5-7.8,3.5-13.3
		c0-4.4-0.8-8.1-2.3-11.2s-3.5-5.3-5.9-6.6c-2.4-1.3-6.3-1.9-11.9-1.9H60.3V473L70.9,473L70.9,473L70.9,473z M70.9,414.4l7.7,0
		c4.6,0,7.4,0.2,8.4,0.5c1.4,0.5,2.4,1.5,3.2,2.8c0.8,1.4,1.2,3.2,1.2,5.4s-0.4,4.2-1.2,5.6c-0.8,1.4-1.8,2.3-3.1,2.8
		c-1.3,0.5-4.2,0.7-8.9,0.7l-7.3,0L70.9,414.4L70.9,414.4L70.9,414.4z"/>
	<path class="st2" d="M592.2,405c-5.6-1.8-12.9-2.9-19.1-1.5c-4.7,1-8.2,2.8-11.1,5.9c-1.9,2.2-3.1,4.1-3.9,7.8
		c-0.7,3.2-0.8,5.8,0,8.9c0.9,3.4,2.6,6.7,5.3,9c2.6,2.3,5.1,3.8,9.8,6.4c5.2,2.9,6.9,4,8.1,5.2c2.1,2.2,2.3,3.2,2.7,4.3
		c0.5,1.1,0.5,2.6,0.1,4.7c-0.5,2.7-1.7,4.5-4.1,5.9c-2.4,1.4-7.8,2.7-14.2,0.5c-2.3-0.8-4.4-1.5-6.1-2.5l-0.6,10.9
		c0.7,0.3,3.5,1.3,7.9,2.3c6.2,1.3,14.5,0.4,20.2-2.7c3.3-2,7.7-6.2,9-12.1c0.9-4.1,0.9-7.6,0.2-10.8s-1.5-4.8-3.7-7.2
		c-2.2-2.4-6.1-5.1-11.7-8c-5.2-2.8-7.2-3.7-8.6-5.5c-0.7-0.9-2.1-3.3-2.1-5.2c0-2.8,0.3-4.8,2.7-6.6c1.8-1.5,7.5-3.9,18.3,0.8
		c0.1,0,0.4,0.2,0.4,0.2L592.2,405L592.2,405L592.2,405z"/>
	<path class="st3" d="M592.2,405c-5.6-1.8-12.9-2.9-19.1-1.5c-4.7,1-8.2,2.8-11.1,5.9c-1.9,2.2-3.1,4.1-3.9,7.8
		c-0.7,3.2-0.8,5.8,0,8.9c0.9,3.4,2.6,6.7,5.3,9c2.6,2.3,5.1,3.8,9.8,6.4c5.2,2.9,6.9,4,8.1,5.2c2.1,2.2,2.3,3.2,2.7,4.3
		c0.5,1.1,0.5,2.6,0.1,4.7c-0.5,2.7-1.7,4.5-4.1,5.9c-2.4,1.4-7.8,2.7-14.2,0.5c-2.3-0.8-4.4-1.5-6.1-2.5l-0.6,10.9
		c0.7,0.3,3.5,1.3,7.9,2.3c6.2,1.3,14.5,0.4,20.2-2.7c3.3-2,7.7-6.2,9-12.1c0.9-4.1,0.9-7.6,0.2-10.8s-1.5-4.8-3.7-7.2
		c-2.2-2.4-6.1-5.1-11.7-8c-5.2-2.8-7.2-3.7-8.6-5.5c-0.7-0.9-2.1-3.3-2.1-5.2c0-2.8,0.3-4.8,2.7-6.6c1.8-1.5,7.5-3.9,18.3,0.8
		c0.1,0,0.4,0.2,0.4,0.2L592.2,405L592.2,405L592.2,405z"/>
	<polygon class="st2" points="126.1,473 126.1,402.5 114.5,402.5 114.5,473 126.1,473 	"/>
	<polygon class="st2" points="166.3,473 187,402.5 174.6,402.5 160.5,454.7 145.8,402.5 133.2,402.5 153.8,473 166.3,473 	"/>
	<polygon class="st2" points="234.8,473 234.8,461.1 206.5,461.1 206.5,441.9 231.5,441.9 231.5,430.1 206.5,430.1 206.5,414.4
		233.7,414.4 233.7,402.5 194.9,402.5 194.9,473 234.8,473 	"/>
	<polygon class="st2" points="318.3,473 318.3,443.4 339.5,402.5 326.1,402.5 312.7,430.4 299.1,402.5 285.5,402.5 306.6,443.3
		306.6,473 318.3,473 	"/>
	<polygon class="st2" points="412.9,473 412.9,414.4 430.1,414.4 430.1,402.5 384.1,402.5 384.1,414.4 401.3,414.4 401.3,473
		412.9,473 	"/>
	<polygon class="st2" points="497.7,473 497.7,417.5 513.3,473 522.3,473 538,417.5 538,473 548.7,473 548.7,402.5 532.1,402.5
		517.9,452.6 503.5,402.5 487,402.5 487,473 497.7,473 	"/>
	<polygon class="st2" points="478.9,473 478.9,461.1 450.6,461.1 450.6,441.9 475.6,441.9 475.6,430.1 450.6,430.1 450.6,414.4
		477.8,414.4 477.8,402.5 438.9,402.5 438.9,473 478.9,473 	"/>
	<path class="st2" d="M375.1,405c-5.6-1.8-12.9-2.9-19.1-1.5c-4.6,1-8.2,2.8-11.1,5.9c-1.9,2.2-3.1,4.1-3.9,7.8
		c-0.7,3.2-0.8,5.8,0,8.9c0.9,3.4,2.6,6.7,5.3,9c2.6,2.3,5.1,3.8,9.8,6.4c5.2,2.9,6.9,4,8.1,5.2c2.1,2.2,2.3,3.2,2.7,4.3
		c0.5,1.1,0.5,2.6,0.1,4.7c-0.5,2.7-1.7,4.5-4.1,5.9c-2.4,1.4-7.8,2.7-14.2,0.5c-2.3-0.8-4.4-1.5-6.1-2.5l-0.6,10.9
		c0.7,0.3,3.5,1.3,7.9,2.3c6.2,1.3,14.5,0.4,20.2-2.7c3.3-2,7.7-6.2,9-12.1c0.9-4.1,0.9-7.6,0.1-10.8s-1.5-4.8-3.7-7.2
		c-2.2-2.4-6.1-5.1-11.7-8c-5.2-2.8-7.2-3.7-8.6-5.5c-0.7-0.9-2.1-3.3-2.1-5.2c0-2.8,0.3-4.8,2.7-6.6c1.8-1.5,7.5-3.9,18.3,0.8
		c0.1,0,0.4,0.2,0.4,0.2L375.1,405L375.1,405L375.1,405z"/>
	<path class="st3" d="M375.1,405c-5.6-1.8-12.9-2.9-19.1-1.5c-4.6,1-8.2,2.8-11.1,5.9c-1.9,2.2-3.1,4.1-3.9,7.8
		c-0.7,3.2-0.8,5.8,0,8.9c0.9,3.4,2.6,6.7,5.3,9c2.6,2.3,5.1,3.8,9.8,6.4c5.2,2.9,6.9,4,8.1,5.2c2.1,2.2,2.3,3.2,2.7,4.3
		c0.5,1.1,0.5,2.6,0.1,4.7c-0.5,2.7-1.7,4.5-4.1,5.9c-2.4,1.4-7.8,2.7-14.2,0.5c-2.3-0.8-4.4-1.5-6.1-2.5l-0.6,10.9
		c0.7,0.3,3.5,1.3,7.9,2.3c6.2,1.3,14.5,0.4,20.2-2.7c3.3-2,7.7-6.2,9-12.1c0.9-4.1,0.9-7.6,0.1-10.8s-1.5-4.8-3.7-7.2
		c-2.2-2.4-6.1-5.1-11.7-8c-5.2-2.8-7.2-3.7-8.6-5.5c-0.7-0.9-2.1-3.3-2.1-5.2c0-2.8,0.3-4.8,2.7-6.6c1.8-1.5,7.5-3.9,18.3,0.8
		c0.1,0,0.4,0.2,0.4,0.2L375.1,405L375.1,405L375.1,405z"/>
	<path class="st2" d="M277.1,405c-5.6-1.8-12.9-2.9-19.1-1.5c-4.6,1-8.2,2.8-11.1,5.9c-1.9,2.2-3.1,4.1-3.9,7.8
		c-0.7,3.2-0.8,5.8,0,8.9c0.9,3.4,2.6,6.7,5.3,9c2.6,2.3,5.1,3.8,9.8,6.4c5.2,2.9,6.9,4,8.1,5.2c2.1,2.2,2.3,3.2,2.7,4.3
		c0.5,1.1,0.5,2.6,0.1,4.7c-0.5,2.7-1.7,4.5-4.1,5.9c-2.4,1.4-7.8,2.7-14.2,0.5c-2.3-0.8-4.4-1.5-6.1-2.5l-0.6,10.9
		c0.7,0.3,3.5,1.3,7.9,2.3c6.2,1.3,14.5,0.4,20.2-2.7c3.3-2,7.7-6.2,9-12.1c0.9-4.1,0.9-7.6,0.1-10.8s-1.5-4.8-3.7-7.2
		c-2.2-2.4-6.1-5.1-11.7-8c-5.2-2.8-7.2-3.7-8.6-5.5c-0.7-0.9-2.1-3.3-2.1-5.2c0-2.8,0.3-4.8,2.7-6.6c1.8-1.5,7.5-3.9,18.3,0.8
		c0.1,0,0.4,0.2,0.4,0.2L277.1,405L277.1,405L277.1,405z"/>
	<path class="st3" d="M277.1,405c-5.6-1.8-12.9-2.9-19.1-1.5c-4.6,1-8.2,2.8-11.1,5.9c-1.9,2.2-3.1,4.1-3.9,7.8
		c-0.7,3.2-0.8,5.8,0,8.9c0.9,3.4,2.6,6.7,5.3,9c2.6,2.3,5.1,3.8,9.8,6.4c5.2,2.9,6.9,4,8.1,5.2c2.1,2.2,2.3,3.2,2.7,4.3
		c0.5,1.1,0.5,2.6,0.1,4.7c-0.5,2.7-1.7,4.5-4.1,5.9c-2.4,1.4-7.8,2.7-14.2,0.5c-2.3-0.8-4.4-1.5-6.1-2.5l-0.6,10.9
		c0.7,0.3,3.5,1.3,7.9,2.3c6.2,1.3,14.5,0.4,20.2-2.7c3.3-2,7.7-6.2,9-12.1c0.9-4.1,0.9-7.6,0.1-10.8s-1.5-4.8-3.7-7.2
		c-2.2-2.4-6.1-5.1-11.7-8c-5.2-2.8-7.2-3.7-8.6-5.5c-0.7-0.9-2.1-3.3-2.1-5.2c0-2.8,0.3-4.8,2.7-6.6c1.8-1.5,7.5-3.9,18.3,0.8
		c0.1,0,0.4,0.2,0.4,0.2L277.1,405L277.1,405L277.1,405z"/>
</g>
</svg>
